<mxfile host="Electron" modified="2024-02-28T10:53:44.988Z" agent="Mozilla/5.0 (Macintosh; Intel Mac OS X 10_15_7) AppleWebKit/537.36 (KHTML, like Gecko) draw.io/23.1.5 Chrome/120.0.6099.109 Electron/28.1.0 Safari/537.36" etag="DPnd1iI0k7D2PU2p-_9J" version="23.1.5" type="device">
  <diagram name="第 1 页" id="nh3MjuVTt8gJdhJkKaQQ">
    <mxGraphModel dx="778" dy="567" grid="1" gridSize="10" guides="1" tooltips="1" connect="1" arrows="1" fold="1" page="1" pageScale="1" pageWidth="827" pageHeight="1169" math="0" shadow="0">
      <root>
        <mxCell id="0" />
        <mxCell id="1" parent="0" />
        <mxCell id="qXV_FZBzuJZQkkvS6raG-1" value="&lt;font style=&quot;font-size: 15px;&quot;&gt;启动类加载器&lt;br&gt;Bootstrap Class Loader&lt;/font&gt;" style="rounded=1;whiteSpace=wrap;html=1;strokeColor=none;fillColor=#60a917;fontColor=#ffffff;" vertex="1" parent="1">
          <mxGeometry x="320" y="50" width="220" height="70" as="geometry" />
        </mxCell>
        <mxCell id="qXV_FZBzuJZQkkvS6raG-2" value="&lt;font style=&quot;font-size: 15px;&quot;&gt;平台类加载器&lt;br&gt;Platform Class Loader&lt;/font&gt;" style="rounded=1;whiteSpace=wrap;html=1;strokeColor=none;fillColor=#60a917;fontColor=#ffffff;" vertex="1" parent="1">
          <mxGeometry x="320" y="180" width="220" height="70" as="geometry" />
        </mxCell>
        <mxCell id="qXV_FZBzuJZQkkvS6raG-3" value="&lt;font style=&quot;font-size: 15px;&quot;&gt;应用类加载器&lt;br&gt;Platform Class Loader&lt;/font&gt;" style="rounded=1;whiteSpace=wrap;html=1;strokeColor=none;fillColor=#60a917;fontColor=#ffffff;" vertex="1" parent="1">
          <mxGeometry x="320" y="310" width="220" height="70" as="geometry" />
        </mxCell>
        <mxCell id="qXV_FZBzuJZQkkvS6raG-4" value="&lt;font style=&quot;font-size: 15px;&quot;&gt;自定义类加载器&lt;br&gt;User Class Loader&lt;/font&gt;" style="rounded=1;whiteSpace=wrap;html=1;strokeColor=none;fillColor=#60a917;fontColor=#ffffff;" vertex="1" parent="1">
          <mxGeometry x="171" y="460" width="220" height="70" as="geometry" />
        </mxCell>
        <mxCell id="qXV_FZBzuJZQkkvS6raG-5" value="&lt;font style=&quot;font-size: 15px;&quot;&gt;自定义类加载器&lt;br&gt;User Class Loader&lt;/font&gt;" style="rounded=1;whiteSpace=wrap;html=1;strokeColor=none;fillColor=#60a917;fontColor=#ffffff;" vertex="1" parent="1">
          <mxGeometry x="470" y="460" width="220" height="70" as="geometry" />
        </mxCell>
        <mxCell id="qXV_FZBzuJZQkkvS6raG-6" value="" style="endArrow=classic;html=1;rounded=0;entryX=0.355;entryY=1.036;entryDx=0;entryDy=0;entryPerimeter=0;exitX=0.5;exitY=0;exitDx=0;exitDy=0;" edge="1" parent="1" source="qXV_FZBzuJZQkkvS6raG-4" target="qXV_FZBzuJZQkkvS6raG-3">
          <mxGeometry width="50" height="50" relative="1" as="geometry">
            <mxPoint x="330" y="450" as="sourcePoint" />
            <mxPoint x="380" y="400" as="targetPoint" />
          </mxGeometry>
        </mxCell>
        <mxCell id="qXV_FZBzuJZQkkvS6raG-7" value="" style="endArrow=classic;html=1;rounded=0;entryX=0.591;entryY=1.021;entryDx=0;entryDy=0;entryPerimeter=0;exitX=0.5;exitY=0;exitDx=0;exitDy=0;" edge="1" parent="1" source="qXV_FZBzuJZQkkvS6raG-5" target="qXV_FZBzuJZQkkvS6raG-3">
          <mxGeometry width="50" height="50" relative="1" as="geometry">
            <mxPoint x="291" y="470" as="sourcePoint" />
            <mxPoint x="408" y="393" as="targetPoint" />
          </mxGeometry>
        </mxCell>
        <mxCell id="qXV_FZBzuJZQkkvS6raG-8" value="" style="endArrow=classic;html=1;rounded=0;exitX=0.359;exitY=0.007;exitDx=0;exitDy=0;exitPerimeter=0;" edge="1" parent="1" source="qXV_FZBzuJZQkkvS6raG-3">
          <mxGeometry width="50" height="50" relative="1" as="geometry">
            <mxPoint x="350" y="300" as="sourcePoint" />
            <mxPoint x="400" y="250" as="targetPoint" />
          </mxGeometry>
        </mxCell>
        <mxCell id="qXV_FZBzuJZQkkvS6raG-9" value="" style="endArrow=classic;html=1;rounded=0;entryX=0.627;entryY=0.036;entryDx=0;entryDy=0;entryPerimeter=0;" edge="1" parent="1" target="qXV_FZBzuJZQkkvS6raG-3">
          <mxGeometry width="50" height="50" relative="1" as="geometry">
            <mxPoint x="458" y="250" as="sourcePoint" />
            <mxPoint x="410" y="260" as="targetPoint" />
          </mxGeometry>
        </mxCell>
        <mxCell id="qXV_FZBzuJZQkkvS6raG-10" value="" style="endArrow=classic;html=1;rounded=0;exitX=0.359;exitY=0.007;exitDx=0;exitDy=0;exitPerimeter=0;" edge="1" parent="1">
          <mxGeometry width="50" height="50" relative="1" as="geometry">
            <mxPoint x="429.5" y="180" as="sourcePoint" />
            <mxPoint x="430.5" y="120" as="targetPoint" />
          </mxGeometry>
        </mxCell>
        <mxCell id="qXV_FZBzuJZQkkvS6raG-11" value="" style="endArrow=classic;html=1;rounded=0;entryX=1;entryY=0.5;entryDx=0;entryDy=0;exitX=1;exitY=0.5;exitDx=0;exitDy=0;" edge="1" parent="1" source="qXV_FZBzuJZQkkvS6raG-3" target="qXV_FZBzuJZQkkvS6raG-1">
          <mxGeometry width="50" height="50" relative="1" as="geometry">
            <mxPoint x="291" y="470" as="sourcePoint" />
            <mxPoint x="408" y="393" as="targetPoint" />
            <Array as="points">
              <mxPoint x="600" y="345" />
              <mxPoint x="600" y="85" />
            </Array>
          </mxGeometry>
        </mxCell>
      </root>
    </mxGraphModel>
  </diagram>
</mxfile>
